<?xml version="1.0" standalone="no"?><!DOCTYPE svg PUBLIC "-//W3C//DTD SVG 1.1//EN" "http://www.w3.org/Graphics/SVG/1.1/DTD/svg11.dtd"><svg t="1783908677675" class="icon" viewBox="0 0 1024 1024" version="1.1" xmlns="http://www.w3.org/2000/svg" p-id="8452" xmlns:xlink="http://www.w3.org/1999/xlink" width="128" height="128"><path d="M91.8528 180.2752l370.1248 307.712a76.8 76.8 0 0 0 98.2016 0l370.432-308.0192A51.5072 51.5072 0 0 0 921.6 179.2H102.4c-3.584 0-7.168 0.3584-10.5472 1.0752z m-38.2976 34.7648A51.2 51.2 0 0 0 51.2 230.4v563.2a51.2 51.2 0 0 0 51.2 51.2h819.2a51.2 51.2 0 0 0 51.2-51.2v-563.2a51.1488 51.1488 0 0 0-2.7648-16.5888l-377.1392 313.4976a128 128 0 0 1-163.6352 0L53.5552 215.04zM102.4 128h819.2a102.4 102.4 0 0 1 102.4 102.4v563.2a102.4 102.4 0 0 1-102.4 102.4H102.4a102.4 102.4 0 0 1-102.4-102.4v-563.2a102.4 102.4 0 0 1 102.4-102.4z" fill="#e6e6e6" p-id="8453"></path></svg>